<svg id="envelope" height="25px" width="25px" version="1.1" xmlns="http://www.w3.org/2000/svg" xmlns:xlink="http://www.w3.org/1999/xlink" x="0px" y="0px" viewBox="0 0 25 25" enable-background="new 0 0 25 25" xml:space="preserve">
              <path style="fill:#C51F84" d="M24.9,5.8l-1.6-1.6l-9.1,9.1c-0.9,0.9-2.4,0.9-3.3,0L1.8,4.2L0.1,5.8l6.5,6.5l-6.5,6.5l1.6,1.6l6.5-6.5
              l0.9,0.9c0.9,0.9,2,1.4,3.3,1.4c1.2,0,2.4-0.5,3.3-1.4l0.9-0.9l6.5,6.5l1.6-1.6l-6.5-6.5L24.9,5.8z"/>
              <path style="fill:#C51F84" d="M22.3,21.9H2.7c-1.4,0-2.6-1.2-2.6-2.6v-14c0-1.4,1.2-2.6,2.6-2.6h19.6c1.4,0,2.6,1.2,2.6,2.6v14
              C24.9,20.8,23.7,21.9,22.3,21.9z M2.7,5.1c-0.1,0-0.2,0.1-0.2,0.2v14c0,0.1,0.1,0.2,0.2,0.2h19.6c0.1,0,0.2-0.1,0.2-0.2v-14
              c0-0.1-0.1-0.2-0.2-0.2H2.7z"/>
            </svg>