<svg height="25px" width="25px" version="1.1" xmlns="http://www.w3.org/2000/svg" xmlns:xlink="http://www.w3.org/1999/xlink" x="0px" y="0px" viewBox="0 0 54 54" enable-background="new 0 0 54 54" xml:space="preserve">
              <path style="fill: #007BB6" d="M50,0H4C1.8,0,0,1.7,0,3.9v46.2C0,52.3,1.8,54,4,54h46c2.2,0,4-1.7,4-3.9V3.9C54,1.7,52.2,0,50,0z M16,46H8
              V20.2h8V46z M12,16.7c-2.6,0-4.6-2.1-4.6-4.6c0-2.6,2.1-4.6,4.6-4.6c2.6,0,4.6,2.1,4.6,4.6C16.7,14.6,14.6,16.7,12,16.7z M46,46h-8
              V33.5c0-3-0.1-6.8-4.2-6.8c-4.2,0-4.8,3.3-4.8,6.6V46h-8V20.2h7.7v3.5h0.1c1.1-2,3.7-4.2,7.6-4.2c8.1,0,9.6,5.3,9.6,12.3V46z"/>
</svg>